<mxfile host="app.diagrams.net" modified="2023-11-03T12:12:43.551Z" agent="Mozilla/5.0 (Windows NT 10.0; Win64; x64) AppleWebKit/537.36 (KHTML, like Gecko) Chrome/118.0.0.0 Safari/537.36" etag="Xrloucooib0dCODe090m" version="22.0.8" type="google">
  <diagram name="Página-1" id="MgNRt5TR2vQWsKFzcshd">
    <mxGraphModel grid="0" page="1" gridSize="10" guides="1" tooltips="1" connect="1" arrows="1" fold="1" pageScale="1" pageWidth="1169" pageHeight="827" math="0" shadow="0">
      <root>
        <mxCell id="0" />
        <mxCell id="1" parent="0" />
        <mxCell id="oWkSYgxMbNnpd8akfMKq-1" value="" style="edgeStyle=orthogonalEdgeStyle;rounded=0;orthogonalLoop=1;jettySize=auto;html=1;entryX=0.5;entryY=0;entryDx=0;entryDy=0;" edge="1" parent="1" source="oWkSYgxMbNnpd8akfMKq-2" target="oWkSYgxMbNnpd8akfMKq-4">
          <mxGeometry relative="1" as="geometry">
            <mxPoint x="262" y="226" as="targetPoint" />
          </mxGeometry>
        </mxCell>
        <mxCell id="oWkSYgxMbNnpd8akfMKq-2" value="INICI" style="rounded=1;whiteSpace=wrap;html=1;" vertex="1" parent="1">
          <mxGeometry x="169.5" y="151.5" width="80" height="40" as="geometry" />
        </mxCell>
        <mxCell id="N7fJAlpRT1N_-RScpPzj-2" value="" style="edgeStyle=orthogonalEdgeStyle;rounded=0;orthogonalLoop=1;jettySize=auto;html=1;" edge="1" parent="1" source="oWkSYgxMbNnpd8akfMKq-4" target="N7fJAlpRT1N_-RScpPzj-1">
          <mxGeometry relative="1" as="geometry" />
        </mxCell>
        <mxCell id="oWkSYgxMbNnpd8akfMKq-4" value="OUTPUT:&lt;br&gt;&quot;Tria una d&#39;aquestes &lt;br&gt;opcions&quot;" style="shape=parallelogram;html=1;strokeWidth=2;perimeter=parallelogramPerimeter;whiteSpace=wrap;rounded=1;arcSize=12;size=0.23;" vertex="1" parent="1">
          <mxGeometry x="112" y="236" width="195" height="67" as="geometry" />
        </mxCell>
        <mxCell id="oWkSYgxMbNnpd8akfMKq-20" value="FIN" style="strokeWidth=2;html=1;shape=mxgraph.flowchart.terminator;whiteSpace=wrap;" vertex="1" parent="1">
          <mxGeometry x="713.25" y="151.5" width="70" height="40" as="geometry" />
        </mxCell>
        <mxCell id="N7fJAlpRT1N_-RScpPzj-11" style="edgeStyle=orthogonalEdgeStyle;rounded=0;orthogonalLoop=1;jettySize=auto;html=1;exitX=0;exitY=0.5;exitDx=0;exitDy=0;entryX=1;entryY=0.5;entryDx=0;entryDy=0;" edge="1" parent="1" source="N7fJAlpRT1N_-RScpPzj-1" target="oWkSYgxMbNnpd8akfMKq-4">
          <mxGeometry relative="1" as="geometry" />
        </mxCell>
        <mxCell id="N7fJAlpRT1N_-RScpPzj-13" style="edgeStyle=orthogonalEdgeStyle;rounded=0;orthogonalLoop=1;jettySize=auto;html=1;exitX=0.5;exitY=0;exitDx=0;exitDy=0;entryX=0.5;entryY=1;entryDx=0;entryDy=0;" edge="1" parent="1" source="N7fJAlpRT1N_-RScpPzj-1" target="N7fJAlpRT1N_-RScpPzj-12">
          <mxGeometry relative="1" as="geometry" />
        </mxCell>
        <mxCell id="N7fJAlpRT1N_-RScpPzj-18" style="edgeStyle=orthogonalEdgeStyle;rounded=0;orthogonalLoop=1;jettySize=auto;html=1;exitX=0.5;exitY=1;exitDx=0;exitDy=0;entryX=0.5;entryY=0;entryDx=0;entryDy=0;" edge="1" parent="1" source="N7fJAlpRT1N_-RScpPzj-1" target="N7fJAlpRT1N_-RScpPzj-17">
          <mxGeometry relative="1" as="geometry" />
        </mxCell>
        <mxCell id="N7fJAlpRT1N_-RScpPzj-20" style="edgeStyle=orthogonalEdgeStyle;rounded=0;orthogonalLoop=1;jettySize=auto;html=1;exitX=1;exitY=0.5;exitDx=0;exitDy=0;entryX=0;entryY=0.5;entryDx=0;entryDy=0;" edge="1" parent="1" source="N7fJAlpRT1N_-RScpPzj-1" target="N7fJAlpRT1N_-RScpPzj-19">
          <mxGeometry relative="1" as="geometry" />
        </mxCell>
        <mxCell id="N7fJAlpRT1N_-RScpPzj-1" value="Opció?" style="rhombus;whiteSpace=wrap;html=1;strokeWidth=2;rounded=1;arcSize=12;" vertex="1" parent="1">
          <mxGeometry x="337" y="229.5" width="80" height="80" as="geometry" />
        </mxCell>
        <mxCell id="N7fJAlpRT1N_-RScpPzj-12" value="OUTPUT:&lt;br&gt;&quot;Has triat sortir&quot;" style="shape=parallelogram;html=1;strokeWidth=2;perimeter=parallelogramPerimeter;whiteSpace=wrap;rounded=1;arcSize=12;size=0.23;" vertex="1" parent="1">
          <mxGeometry x="298.25" y="143" width="157.5" height="57" as="geometry" />
        </mxCell>
        <mxCell id="N7fJAlpRT1N_-RScpPzj-14" style="edgeStyle=orthogonalEdgeStyle;rounded=0;orthogonalLoop=1;jettySize=auto;html=1;exitX=1;exitY=0.5;exitDx=0;exitDy=0;entryX=0;entryY=0.5;entryDx=0;entryDy=0;entryPerimeter=0;" edge="1" parent="1" source="N7fJAlpRT1N_-RScpPzj-12" target="oWkSYgxMbNnpd8akfMKq-20">
          <mxGeometry relative="1" as="geometry" />
        </mxCell>
        <mxCell id="N7fJAlpRT1N_-RScpPzj-25" style="edgeStyle=orthogonalEdgeStyle;rounded=0;orthogonalLoop=1;jettySize=auto;html=1;exitX=1;exitY=0.5;exitDx=0;exitDy=0;entryX=0;entryY=0.5;entryDx=0;entryDy=0;" edge="1" parent="1" source="N7fJAlpRT1N_-RScpPzj-16" target="N7fJAlpRT1N_-RScpPzj-24">
          <mxGeometry relative="1" as="geometry" />
        </mxCell>
        <mxCell id="N7fJAlpRT1N_-RScpPzj-16" value="euros / bitcoin" style="rounded=1;whiteSpace=wrap;html=1;absoluteArcSize=1;arcSize=14;strokeWidth=2;" vertex="1" parent="1">
          <mxGeometry x="465.75" y="448" width="101.25" height="40" as="geometry" />
        </mxCell>
        <mxCell id="N7fJAlpRT1N_-RScpPzj-23" style="edgeStyle=orthogonalEdgeStyle;rounded=0;orthogonalLoop=1;jettySize=auto;html=1;exitX=1;exitY=0.5;exitDx=0;exitDy=0;entryX=0;entryY=0.5;entryDx=0;entryDy=0;" edge="1" parent="1" source="N7fJAlpRT1N_-RScpPzj-17" target="N7fJAlpRT1N_-RScpPzj-16">
          <mxGeometry relative="1" as="geometry" />
        </mxCell>
        <mxCell id="N7fJAlpRT1N_-RScpPzj-17" value="OUTPUT:&lt;br&gt;&quot;Has comprar&lt;br&gt;&amp;nbsp;Bitcoins&quot;" style="shape=parallelogram;html=1;strokeWidth=2;perimeter=parallelogramPerimeter;whiteSpace=wrap;rounded=1;arcSize=12;size=0.23;" vertex="1" parent="1">
          <mxGeometry x="317" y="433" width="120" height="70" as="geometry" />
        </mxCell>
        <mxCell id="N7fJAlpRT1N_-RScpPzj-27" style="edgeStyle=orthogonalEdgeStyle;rounded=0;orthogonalLoop=1;jettySize=auto;html=1;exitX=0.5;exitY=1;exitDx=0;exitDy=0;entryX=0.5;entryY=0;entryDx=0;entryDy=0;" edge="1" parent="1" source="N7fJAlpRT1N_-RScpPzj-19" target="N7fJAlpRT1N_-RScpPzj-26">
          <mxGeometry relative="1" as="geometry" />
        </mxCell>
        <mxCell id="N7fJAlpRT1N_-RScpPzj-19" value="OUTPUT:&lt;br&gt;&quot;Has triat comprar &lt;br&gt;Ethereum&quot;" style="shape=parallelogram;html=1;strokeWidth=2;perimeter=parallelogramPerimeter;whiteSpace=wrap;rounded=1;arcSize=12;size=0.23;" vertex="1" parent="1">
          <mxGeometry x="455.75" y="241" width="157.5" height="57" as="geometry" />
        </mxCell>
        <mxCell id="N7fJAlpRT1N_-RScpPzj-22" value="euros = 0&lt;br&gt;bitcoin =&amp;nbsp;32296.53&lt;br&gt;ethereum = 1693.80" style="text;strokeColor=none;align=left;fillColor=none;html=1;verticalAlign=middle;whiteSpace=wrap;rounded=0;" vertex="1" parent="1">
          <mxGeometry x="147" y="343" width="120" height="50" as="geometry" />
        </mxCell>
        <mxCell id="N7fJAlpRT1N_-RScpPzj-24" value="OUTPUT:&lt;br&gt;&quot;El canvi es&quot; + bitcoin +&quot;BTC&quot;" style="shape=parallelogram;html=1;strokeWidth=2;perimeter=parallelogramPerimeter;whiteSpace=wrap;rounded=1;arcSize=12;size=0.23;" vertex="1" parent="1">
          <mxGeometry x="587" y="433" width="270" height="70" as="geometry" />
        </mxCell>
        <mxCell id="N7fJAlpRT1N_-RScpPzj-29" style="edgeStyle=orthogonalEdgeStyle;rounded=0;orthogonalLoop=1;jettySize=auto;html=1;exitX=1;exitY=0.5;exitDx=0;exitDy=0;entryX=0;entryY=0.5;entryDx=0;entryDy=0;" edge="1" parent="1" source="N7fJAlpRT1N_-RScpPzj-26" target="N7fJAlpRT1N_-RScpPzj-28">
          <mxGeometry relative="1" as="geometry" />
        </mxCell>
        <mxCell id="N7fJAlpRT1N_-RScpPzj-26" value="euros / ethereum" style="rounded=1;whiteSpace=wrap;html=1;absoluteArcSize=1;arcSize=14;strokeWidth=2;" vertex="1" parent="1">
          <mxGeometry x="477.93999999999994" y="343" width="113.12" height="40" as="geometry" />
        </mxCell>
        <mxCell id="N7fJAlpRT1N_-RScpPzj-28" value="OUTPUT:&lt;br&gt;&quot;El canvi es&quot; + ethereum + &quot;ETH&quot;" style="shape=parallelogram;html=1;strokeWidth=2;perimeter=parallelogramPerimeter;whiteSpace=wrap;rounded=1;arcSize=12;size=0.23;" vertex="1" parent="1">
          <mxGeometry x="613.25" y="328" width="270" height="70" as="geometry" />
        </mxCell>
        <mxCell id="N7fJAlpRT1N_-RScpPzj-30" style="edgeStyle=orthogonalEdgeStyle;rounded=0;orthogonalLoop=1;jettySize=auto;html=1;exitX=0.5;exitY=0;exitDx=0;exitDy=0;entryX=0.5;entryY=1;entryDx=0;entryDy=0;entryPerimeter=0;" edge="1" parent="1" source="N7fJAlpRT1N_-RScpPzj-28" target="oWkSYgxMbNnpd8akfMKq-20">
          <mxGeometry relative="1" as="geometry" />
        </mxCell>
        <mxCell id="N7fJAlpRT1N_-RScpPzj-31" style="edgeStyle=orthogonalEdgeStyle;rounded=0;orthogonalLoop=1;jettySize=auto;html=1;exitX=1;exitY=0.75;exitDx=0;exitDy=0;entryX=1;entryY=0.5;entryDx=0;entryDy=0;entryPerimeter=0;" edge="1" parent="1" source="N7fJAlpRT1N_-RScpPzj-24" target="oWkSYgxMbNnpd8akfMKq-20">
          <mxGeometry relative="1" as="geometry">
            <Array as="points">
              <mxPoint x="897" y="480" />
              <mxPoint x="897" y="172" />
            </Array>
          </mxGeometry>
        </mxCell>
      </root>
    </mxGraphModel>
  </diagram>
</mxfile>
